<?xml version="1.0" encoding="UTF-8" standalone="no"?>
<svg
   height="305.63553mm"
   viewBox="0 0 257.46677 305.63553"
   width="257.46677mm"
   version="1.1"
   id="svg17"
   xmlns="http://www.w3.org/2000/svg"
   xmlns:svg="http://www.w3.org/2000/svg">
  <defs
     id="defs17" />
  <g
     transform="translate(-309.78539 -71.329531)"
     id="g17">
    <text
       fill="#efeeec"
       stroke-width="5.66929"
       transform="scale(.26458333)"
       id="text1" />
    <g
       transform="matrix(0.93126544,0,0,0.93126544,355.38585,74.542021)"
       id="g2"
       style="paint-order:stroke fill markers">
      <path
         d="m -4.8376942,126.4605 c -0.42717,-0.0205 -2.04356,0.45365 -3.85997,1.14435 -2.0327498,0.77298 -4.5897498,1.53047 -5.6823898,1.68281 -0.72242,0.10079 -1.24935,0.20239 -1.60257,0.39161 -0.157,0.0842 -0.27959,0.18601 -0.36995,0.31217 -0.15784,0.22074 -0.21738,0.51792 -0.18778,0.93089 0.0509,0.70853 0.36237,1.75963 0.88193,3.35681 6.1975998,19.05221 20.4212698,29.96387 42.09204,32.29127 1.89785,0.20382 3.14519,0.35139 3.96991,0.16371 1.61912,-0.36851 1.6092,-2.02763 1.69405,-7.08517 0.0912,-5.43378 0.29213,-7.4859 -0.62916,-8.30172 -0.11057,-0.098 -0.23697,-0.17795 -0.38198,-0.24396 -0.19334,-0.088 -0.41949,-0.15063 -0.68291,-0.19741 -0.77822,-0.13805 -1.88425,-0.13479 -3.44829,-0.21587 -7.24149,-0.37569 -13.30556,-2.23461 -18.2686202,-5.62865 -1.24092,-0.84861 -2.41289,-1.79301 -3.5173,-2.83438 -3.31286,-3.12362 -6.01640004,-7.11733 -8.14363,-12.0044 -0.82439,-1.89396 -1.61777,-3.57392 -1.76306,-3.73317 -0.003,-0.003 -0.008,-0.008 -0.0124,-0.0109 -0.005,-0.003 -0.0109,-0.006 -0.0185,-0.008 -0.0175,-0.006 -0.0405,-0.009 -0.0689,-0.0109 z"
         fill="#474f58"
         stroke="#212831"
         stroke-linecap="round"
         stroke-width="15.6191"
         id="path1"
         style="paint-order:stroke fill markers" />
      <path
         d="m -25.775539,79.813379 c -1.951447,0.160064 -3.247727,0.409728 -4.410783,0.980759 -0.792131,0.412048 -1.55812,0.970396 -2.375931,1.70541 -0.319835,0.292623 -0.65483,0.618055 -1.014515,0.980173 -0.686773,0.691447 -1.312972,1.412394 -1.878855,2.163492 -1.697504,2.258127 -2.852484,4.783353 -3.471362,7.609155 -0.767745,3.509364 -0.711169,7.484352 0.156573,11.980932 2.099448,10.87909 7.069132,19.5255 13.124098,22.83387 1.739201,0.95028 1.925846,1.14447 2.001085,2.08607 3.72e-4,0.005 8.34e-4,0.009 0.0011,0.014 v 5.9e-4 l 22.4415577,-4.8514 c -0.5403493,-1.12947 -0.9196097,-2.03228 -0.9196435,-2.28222 0,-0.15889 0.6761631,-1.00323 1.50227545,-1.87653 C 4.37904,115.87316 7.7121099,107.33459 7.7121211,99.813861 c 0,-2.90107 -0.8266305,-5.064156 -2.3578866,-6.357158 C 4.6736787,92.882034 3.8537839,92.479424 2.9055427,92.260003 2.1943618,92.095445 1.4110954,92.034082 0.55987693,92.080735 -3.1759037,92.285514 -5.2609576,93.840964 -7.3437925,97.97691 c -0.5854366,1.162521 -1.2068821,2.06618 -1.3812053,2.008081 -8.448e-4,-3.6e-4 -0.00293,-10e-4 -0.00405,-10e-4 l -5.857e-4,-5.9e-4 c -0.00113,-3.5e-4 -0.00237,-7.2e-4 -0.00462,-0.001 -0.1347663,-0.0449 -0.464558,-0.83995 -0.8154578,-1.926014 -0.148079,-0.440207 -0.3025,-0.930783 -0.4534177,-1.444067 -1.629417,-5.542054 -3.415743,-9.472399 -5.549849,-12.169527 -2.379028,-2.951038 -5.210821,-4.420639 -8.676056,-4.596449 -0.55061,-0.02793 -1.06378,-0.03968 -1.546518,-0.03202 z"
         fill="#212831"
         id="path2"
         style="paint-order:stroke fill markers" />
    </g>
    <g
       transform="matrix(0.93126544,0,0,0.93126544,355.38585,74.542021)"
       id="g4">
      <path
         d="m 169.91126,150.26749 c -0.0419,-0.003 -0.0773,9e-4 -0.10591,0.0109 -0.22891,0.0763 -0.37,4.27147 -0.34588,10.29189 0.0295,7.3873 0.038,9.40473 1.33695,11.26691 0.48811,0.69974 1.15857,1.3779 2.08084,2.31037 7.14592,7.22491 14.14102,19.67671 16.31376,29.03878 0.4263,1.83692 0.61172,2.55039 0.96139,2.74612 0.20678,0.0495 0.50997,0.0343 0.81532,-0.053 0.006,-0.002 0.014,-0.005 0.0208,-0.006 0.48295,-0.14318 2.72686,-0.46955 4.98666,-0.72545 2.25981,-0.25589 4.16359,-0.50181 4.2299,-0.54649 0.25277,-0.17027 -0.81526,-7.58795 -1.80078,-12.50837 -2.68925,-13.42674 -8.28903,-24.51468 -16.60425,-32.87788 -7.00124,-7.04168 -11.30902,-9.37614 -11.88881,-8.94758 z"
         fill="#454e58"
         stroke="#212831"
         stroke-linejoin="bevel"
         stroke-width="15.6191"
         id="path3"
         style="stroke-width:15.719;stroke-linecap:butt;stroke-dasharray:none;paint-order:stroke markers fill" />
      <path
         d="m 207.75399,200.57629 -24.63541,7.38998 c 0.11318,1.32602 -0.36105,2.20458 -1.4523,4.34795 -1.85653,3.64645 -2.73194,6.66206 -3.63778,12.5312 -1.38755,8.9901 -0.62861,12.78691 2.81766,14.10303 2.93613,1.12131 5.53987,-0.49943 7.61116,-4.73787 0.91949,-1.88154 1.42453,-2.73918 1.64405,-2.02248 0.12345,0.26718 0.16468,0.87349 0.13936,1.81729 -0.18516,6.89926 -0.26304,10.23823 -0.15789,12.12657 0.15231,1.18105 0.40757,2.20285 0.77857,3.10212 1.02856,2.00115 2.53254,3.53235 4.30257,4.55189 h 0.002 c 0.009,0.001 0.0166,0.0124 0.025,0.0147 2.95091,1.68845 6.63553,1.95773 10.09004,0.6066 4.11473,-1.69343 7.80519,-5.63359 10.1565,-10.99903 1.66809,-3.93885 2.57569,-8.57965 2.56454,-13.82114 -0.004,-1.49883 -0.0642,-2.94006 -0.18218,-4.32174 -0.54478,-4.46023 -1.38179,-7.99396 -2.61247,-10.84367 -1.47304,-3.24146 -3.5171,-5.79378 -6.10452,-7.58687 -0.19344,-0.13411 -0.35014,-0.24678 -0.49028,-0.3554 -0.0532,-0.0419 -0.10329,-0.0844 -0.14958,-0.12592 -0.64844,-0.56742 -0.66027,-1.13841 -0.66223,-3.89347 -3.4e-4,-0.60726 -0.0161,-1.23621 -0.0466,-1.88376 z"
         fill="#212831"
         id="path4" />
    </g>
    <g
       transform="matrix(0.93126544,0,0,0.93126544,355.38585,74.542021)"
       id="g16">
      <path
         d="m 99.749991,31.416666 c 37.952629,0 68.506539,30.553914 68.506539,68.506538 V 205.76369 c 0,37.95263 -30.55391,68.50654 -68.506539,68.50654 -37.952609,0 -68.506524,-30.55391 -68.506524,-68.50654 V 99.923204 c 0,-37.952624 30.553916,-68.506538 68.506524,-68.506538 z"
         fill="#232932"
         stroke-width="1.37357"
         id="path7" />
      <g
         stroke-width="15.5"
         transform="matrix(0.74300418,0,0,0.74300418,24.463415,42.205706)"
         id="g13">
        <path
           d="M 44.116445,125.08965 H 160.12273 v 90.51684 c 0,76.16917 -117.590923,73.68496 -117.590923,0 z"
           fill="none"
           stroke="#efeeec"
           stroke-width="15.5"
           id="path8" />
        <g
           fill="#efeeec"
           stroke-width="2.95843"
           transform="matrix(4.5373381,2.6196331,-2.6196331,4.5373381,-226.77543,-703.44797)"
           id="g12">
          <rect
             height="6.6778841"
             ry="0.91743702"
             width="1.109652"
             x="132.77643"
             y="113.8171"
             id="rect8" />
          <rect
             height="6.6778841"
             ry="0.91743702"
             width="1.109652"
             x="145.692"
             y="113.25344"
             id="rect9" />
          <rect
             height="14.584357"
             ry="1.550303"
             width="1.621357"
             x="135.64952"
             y="109.67597"
             id="rect10" />
          <rect
             height="14.584357"
             ry="1.550303"
             width="1.621357"
             x="142.46991"
             y="109.39415"
             id="rect11" />
          <rect
             height="20.411003"
             ry="2.1696701"
             width="1.834875"
             x="138.87161"
             y="106.66871"
             id="rect12" />
        </g>
      </g>
      <rect
         fill="#868d97"
         height="34.478279"
         ry="15.515224"
         stroke-width="0.91874"
         width="101.36614"
         x="49.066929"
         y="73.408546"
         id="rect13" />
      <g
         fill="#1524ea"
         stroke="#232932"
         stroke-width="7.354"
         id="g15">
        <rect
           height="17.091465"
           ry="6.18255"
           width="12.365101"
           x="68.164146"
           y="82.701714"
           id="rect14" />
        <rect
           height="17.091465"
           ry="6.18255"
           width="12.365101"
           x="119.81603"
           y="83.226105"
           id="rect15" />
      </g>
    </g>
    <path
       d="m 455.7097,104.59014 c 0.26532,-3.58886 0.16865,-7.917764 -0.34839,-10.317887 -1.61528,-7.497227 -5.6742,-12.414616 -10.26785,-12.438735 -4.57317,-0.02403 -5.4791,3.428258 -2.10308,8.014172 1.12441,1.527489 3.12542,5.376987 3.45053,6.638293 0.0382,0.149691 0.0624,0.261313 0.0531,0.318586 0,0.0084 -0.009,0.01546 -0.009,0.0217 v 4.84e-4 4.75e-4 0.0019 c -0.0717,0.144616 -0.61566,-0.504197 -2.43126,-2.758017 -3.30459,-4.102029 -7.48877,-6.625386 -11.93342,-7.196047 -5.15204,-0.661487 -9.15462,1.950359 -8.23313,5.37261 0.11492,0.426622 0.27612,0.797909 0.50195,1.125155 0.6775,0.981852 1.93973,1.57436 4.29993,2.124692 3.05856,0.713163 6.00294,2.184879 8.44108,4.06556 0.60942,0.470119 1.18755,0.966009 1.7276,1.481759 1.15942,1.1072 2.14451,2.30705 2.89521,3.54532 z"
       fill="#232932"
       stroke-linejoin="bevel"
       stroke-width="6.84852"
       id="path16" />
    <g
       id="g19">
      <path
         d="m 416.47441,315.59307 -0.0674,0.16362 c 0.16461,0.0938 0.3296,0.18718 0.49521,0.28003 2.52556,1.41729 2.52556,1.41739 2.52556,14.06928 0,12.6518 -0.13229,14.23921 -1.05628,14.49586 -0.77277,-0.0573 -0.91759,-1.33037 -1.07129,-1.32954 -0.15371,7.5e-4 -1.16604,0.44505 -2.24983,0.98752 -4.44453,2.22451 -7.07035,6.4885 -7.35919,11.94981 -0.15439,2.91914 0.35321,4.29676 1.87688,5.09439 1.3357,0.6992 27.92892,0.68085 29.47285,-0.0205 1.13665,-0.5162 1.91266,-1.58083 2.31575,-3.01647 0.1697,-0.76056 0.24689,-1.67618 0.24687,-2.78197 10e-6,-0.78645 -0.0374,-1.49803 -0.12415,-2.18828 -0.25102,-1.5473 -0.73728,-3.21697 -1.46491,-4.92453 -0.008,-0.0196 -0.0162,-0.0382 -0.0246,-0.0577 -0.85019,-1.98127 -0.85036,-1.98108 -0.85036,-13.14323 0,-8.0222 -4e-5,-10.27922 0.526,-10.86219 0.0114,-0.013 0.0233,-0.0251 0.0351,-0.0363 0.0358,-0.0335 0.074,-0.0596 0.11455,-0.081 0.18915,-0.0983 0.43118,-0.0745 0.74111,-0.0438 0.56834,0.0559 1.26643,0.1043 2.05346,0.14584 l -9.3e-4,-0.0521 z"
         fill="#232932"
         stroke-linejoin="bevel"
         stroke-width="9.36667"
         id="path5"
         style="fill:#454e58;fill-opacity:1;stroke:#212831;stroke-opacity:1" />
      <path
         id="path18"
         style="fill:#212831;stroke-width:14.9211;stroke-linejoin:bevel;paint-order:stroke fill markers"
         d="m 439.76746,348.3434 -26.13044,-4.79022 -6.38509,17.78552 29.33363,1.8328 z" />
    </g>
    <g
       id="g20"
       transform="matrix(-1,0,0,1,896.96591,0)"
       style="paint-order:markers fill stroke">
      <path
         d="m 416.47441,315.59307 -0.0674,0.16362 c 0.16461,0.0938 0.3296,0.18718 0.49521,0.28003 2.52556,1.41729 2.52556,1.41739 2.52556,14.06928 0,12.6518 0,12.65171 -0.92399,12.90836 -0.50819,0.14109 -1.04988,0.25713 -1.20358,0.25796 -0.15371,7.5e-4 -1.16604,0.44505 -2.24983,0.98752 -4.44453,2.22451 -7.07035,6.4885 -7.35919,11.94981 -0.15439,2.91914 0.35321,4.29676 1.87688,5.09439 1.3357,0.6992 27.92892,0.68085 29.47285,-0.0205 1.13665,-0.5162 1.91266,-1.58083 2.31575,-3.01647 0.1697,-0.76056 0.24689,-1.67618 0.24687,-2.78197 10e-6,-0.78645 -0.0374,-1.49803 -0.12415,-2.18828 -0.25102,-1.5473 -0.73728,-3.21697 -1.46491,-4.92453 -0.008,-0.0196 -0.0162,-0.0382 -0.0246,-0.0577 -0.85019,-1.98127 -0.85036,-1.98108 -0.85036,-13.14323 0,-8.0222 -4e-5,-10.27922 0.526,-10.86219 0.0114,-0.013 0.0233,-0.0251 0.0351,-0.0363 0.0358,-0.0335 0.074,-0.0596 0.11455,-0.081 0.18915,-0.0983 0.43118,-0.0745 0.74111,-0.0438 0.56834,0.0559 1.26643,0.1043 2.05346,0.14584 l -9.3e-4,-0.0521 z"
         fill="#232932"
         stroke-linejoin="bevel"
         stroke-width="9.36667"
         id="path19"
         style="fill:#454e58;fill-opacity:1;stroke:#212831;stroke-opacity:1;paint-order:markers fill stroke" />
      <path
         id="path20"
         style="fill:#212831;stroke-width:14.9211;stroke-linejoin:bevel;paint-order:markers fill stroke"
         d="m 439.76746,348.3434 -25.195,-6.0063 -7.32053,19.0016 29.33363,1.8328 z" />
    </g>
  </g>
</svg>
